<?xml version="1.0" encoding="UTF-8" standalone="no"?>
<svg
   height="256"
   preserveAspectRatio="xMidYMid meet"
   version="1.0"
   viewBox="-3.6 0 256 256.00001"
   width="256"
   zoomAndPan="magnify"
   id="svg20"
   sodipodi:docname="icon.svg"
   inkscape:version="1.1.1 (3bf5ae0d25, 2021-09-20)"
   xmlns:inkscape="http://www.inkscape.org/namespaces/inkscape"
   xmlns:sodipodi="http://sodipodi.sourceforge.net/DTD/sodipodi-0.dtd"
   xmlns="http://www.w3.org/2000/svg"
   xmlns:svg="http://www.w3.org/2000/svg">
  <defs
     id="defs24">
    <clipPath
       clipPathUnits="userSpaceOnUse"
       id="clipPath1075">
      <rect
         style="fill:none;fill-rule:evenodd;stroke:#ff0000;stroke-width:3.77953;stop-color:#000000"
         id="rect1077"
         width="255.08302"
         height="255.08302"
         x="74.899658"
         y="-7.2675729" />
    </clipPath>
  </defs>
  <sodipodi:namedview
     id="namedview22"
     pagecolor="#ffffff"
     bordercolor="#666666"
     borderopacity="1.0"
     inkscape:pageshadow="2"
     inkscape:pageopacity="0.0"
     inkscape:pagecheckerboard="0"
     showgrid="false"
     inkscape:zoom="1.7466987"
     inkscape:cx="175.76013"
     inkscape:cy="249.89999"
     inkscape:window-width="2560"
     inkscape:window-height="1361"
     inkscape:window-x="-9"
     inkscape:window-y="-9"
     inkscape:window-maximized="1"
     inkscape:current-layer="svg20" />
  <g
     id="g960"
     transform="matrix(1.0035948,0,0,1.0035948,-78.768907,7.2937028)"
     clip-path="url(#clipPath1075)"
     style="stroke-width:0.996418">
    <g
       id="change1_1"
       style="stroke-width:0.996418">
      <path
         d="m 243.1,162.6 5,16.9 9.4,3.3 30.5,23.9 c 6.8,2.4 28.4,-2.3 34.4,1.5 18.3,11.7 32,29.7 38.5,50.9 l 35,115.2 c 4.4,14.4 -1.1,30 -13.5,38.6 v 0 c -13.3,9.2 -31.1,8 -43,-2.9 l -5.1,-4.7 -8.3,94.5 H 84.5 L 82.4,426.1 52.8,441 c -12,6.1 -26.5,5 -37.5,-2.8 v 0 C 1.7,428.5 -3.6,410.9 2.4,395.3 L 60.8,245 c 6.8,-17.4 19.7,-31.5 36.1,-39.9 3.8,-2 12.7,1.2 16.8,-0.1 l 37.4,-18 4.1,-1.3 13.8,-13.9 z m 9.6,-62 1.5,-18 c 0,0 15.7,-5.2 22.1,-25.1 L 252.7,25.3 196.4,0 l -50.7,17.5 -14.7,26 14.8,16.7 -2,9.8 c 0,0 -21.4,12.4 -2.2,19.2 19.2,6.9 85.9,27.8 85.9,27.8 z"
         fill="#303658"
         id="path2"
         style="stroke-width:0.992849" />
    </g>
    <g
       id="change2_1"
       style="stroke-width:0.996418">
      <path
         d="m 199.4,217.8 -7.1,12.3 30.1,173.9 -28.6,73.5 -30.6,-61.4 11.6,-185.3 -3.6,-18.3 -20.1,11.1 4.1,-37.7 v 28.4 L 187,199 l 15,14.4 v 0 l 9.8,9.4 36.3,-43.2 -36.1,51.2 z M 82.6,432 109.8,411.4 82.5,426.3 Z m -2.2,-109.3 -15,44.3 -20.6,15.4 65,-20.6 -29.9,2.2 z m 253,93.5 0.9,-10.7 -67.9,-91.1 z m 40.4,-63.7 -29.2,-32.2 -10.3,-42.6 v 36.6 l -27.2,-17.1 c 0.5,1.4 66.7,55.3 66.7,55.3 z M 145.7,60.3 l -2,9.8 c 70.5,-1.7 102.6,13.7 108.9,17.1 0.8,0.4 1.2,0.7 1.2,0.7 l 0.4,-5.2 c 0,0 2.6,-0.8 6,-3.1 C 193.5,47.6 145.7,60.3 145.7,60.3 Z"
         fill="#091933"
         id="path5"
         style="stroke-width:0.992849" />
    </g>
    <g
       id="change3_1"
       style="stroke-width:0.996418">
      <path
         d="m 215.9,90.6 c 8.3,18 38.9,2.5 44.3,9.8 4.4,5.9 -3.6,20.3 -15.7,20.3 L 243.1,162.6 187,199 174.6,180.4 186.9,165.5 169,159.8 c -26,-5.2 -28.2,-44.2 -27.9,-61.8 0.1,-5.3 26.7,-1.2 74.8,-7.4 z"
         fill="#f1bba1"
         id="path8"
         style="stroke-width:0.992849" />
    </g>
    <g
       id="change4_1"
       style="stroke-width:0.996418">
      <path
         d="m 191.7,175.6 c -2.5,1.6 -5.6,2.3 -8.5,2.9 -2.8,0.6 -5.7,1.2 -8.5,1.8 l -5.5,-8.3 -0.1,-12.3 c 35,-1.6 57.9,-9.2 57.9,-9.2 -5.7,8.4 -19.3,9.8 -26.9,16.6 -3,2.7 -5.1,6.3 -8.4,8.5 z m 107.6,56.9 v 0 c -3.9,-3.4 -9.9,-3.2 -13.6,0.5 l -134.6,135.5 5.2,21.8 21.7,-21.7 26.2,27.6 c 3.4,3.6 9.1,3.8 12.8,0.4 3.7,-3.5 3.9,-9.3 0.4,-13 L 190.6,356 300,246.9 c 3.9,-4.1 3.6,-10.6 -0.7,-14.4 z M 260.2,100.3 c -0.9,-3.1 -3.4,-5 -7.6,-3.8 -10,2.9 -19,-1.4 -26.6,-20.9 -40.4,21.9 -84.5,13.8 -84.5,13.8 0,0 -0.3,3.3 -0.4,8.6 13.8,2.7 29,-2.8 42.8,-2.3 17.7,0.6 34.5,13.2 51.8,9.3 4,-0.9 7.8,-2.7 11.7,-3.6 4.2,-1.1 8.5,-1.3 12.8,-1.1 z"
         fill="#d08e6c"
         id="path11"
         style="stroke-width:0.992849" />
    </g>
    <g
       id="change3_2"
       style="stroke-width:0.996418">
      <path
         d="m 152.8,359.8 c 3.9,1.3 7.5,3.5 10.3,6.6 6.6,7.2 17.8,20.5 14.5,25.5 -18.8,26.7 -26.9,28.3 -29,23 0,0 -7.8,5.2 -13.6,3.6 -8,-2.3 -21.2,-11.9 -21.2,-11.9 l 27.3,-50.5 z m 113.6,-51 25.9,-23.1 v -27.8 c 0,0 -19,-19 -25.9,-18.5 -6.9,0.5 -33.3,29.2 -34.7,38.4 -1.4,9.2 34.7,31 34.7,31 z"
         fill="#f1bba1"
         id="path14"
         style="stroke-width:0.992849" />
    </g>
    <g
       id="change5_1"
       style="stroke-width:0.996418">
      <path
         d="m 322.5,208.4 -5.8,16 -63,-22.9 3.9,-18.6 45.7,16.1 c 6.8,2.4 13.2,5.5 19.2,9.4 z m -213.6,-8 c -4.2,1.3 -8.2,3 -12,4.9 0.4,5.4 0.9,11.6 0.9,11.6 l 53.3,-19.7 v -10.1 z m 97.3,-175 c -0.6,0 -14.3,-15 -14.3,-15 L 172.1,21 c 0,0 -2.4,27.3 15.3,29.6 16.1,2.1 18.8,-25.2 18.8,-25.2 z"
         fill="#d3ab5b"
         id="path17"
         style="stroke-width:0.992849" />
    </g>
    <rect
       style="fill:none;fill-rule:evenodd;stroke:#ff0000;stroke-width:3.76599;stop-color:#000000"
       id="rect863"
       width="215.19725"
       x="97.800003"
       y="-4.5800686"
       height="0" />
  </g>
</svg>
