<?xml version="1.0" encoding="UTF-8"?><svg xmlns="http://www.w3.org/2000/svg" xmlns:xlink="http://www.w3.org/1999/xlink" height="499.8" preserveAspectRatio="xMidYMid meet" version="1.0" viewBox="-3.6 0.0 403.9 499.8" width="403.9" zoomAndPan="magnify"><g id="change1_1"><path d="M243.1,162.6l5,16.9l9.4,3.3l30.5,23.9c6.8,2.4,28.4-2.3,34.4,1.5c18.3,11.7,32,29.7,38.5,50.9l35,115.2 c4.4,14.4-1.1,30-13.5,38.6l0,0c-13.3,9.2-31.1,8-43-2.9l-5.1-4.7l-8.3,94.5H84.5l-2.1-73.7l-29.6,14.9c-12,6.1-26.5,5-37.5-2.8l0,0 c-13.6-9.7-18.9-27.3-12.9-42.9l58.4-150.3c6.8-17.4,19.7-31.5,36.1-39.9c3.8-2,12.7,1.2,16.8-0.1l37.4-18l4.1-1.3l13.8-13.9 L243.1,162.6z M252.7,100.6l1.5-18c0,0,15.7-5.2,22.1-25.1l-23.6-32.2L196.4,0l-50.7,17.5L131,43.5l14.8,16.7l-2,9.8 c0,0-21.4,12.4-2.2,19.2c19.2,6.9,85.9,27.8,85.9,27.8L252.7,100.6z" fill="#303658"/></g><g id="change2_1"><path d="M199.4,217.8l-7.1,12.3L222.4,404l-28.6,73.5l-30.6-61.4l11.6-185.3l-3.6-18.3l-20.1,11.1l4.1-37.7v28.4 L187,199l15,14.4l0,0l9.8,9.4l36.3-43.2L212,230.8L199.4,217.8z M82.6,432l27.2-20.6l-27.3,14.9L82.6,432z M80.4,322.7L65.4,367 l-20.6,15.4l65-20.6L79.9,364L80.4,322.7z M333.4,416.2l0.9-10.7l-67.9-91.1L333.4,416.2z M373.8,352.5l-29.2-32.2l-10.3-42.6v36.6 l-27.2-17.1C307.6,298.6,373.8,352.5,373.8,352.5z M145.7,60.3l-2,9.8c70.5-1.7,102.6,13.7,108.9,17.1c0.8,0.4,1.2,0.7,1.2,0.7 l0.4-5.2c0,0,2.6-0.8,6-3.1C193.5,47.6,145.7,60.3,145.7,60.3z" fill="#091933"/></g><g id="change3_1"><path d="M215.9,90.6c8.3,18,38.9,2.5,44.3,9.8c4.4,5.9-3.6,20.3-15.7,20.3l-1.4,41.9L187,199l-12.4-18.6l12.3-14.9 l-17.9-5.7c-26-5.2-28.2-44.2-27.9-61.8C141.2,92.7,167.8,96.8,215.9,90.6z" fill="#F1BBA1"/></g><g id="change4_1"><path d="M191.7,175.6c-2.5,1.6-5.6,2.3-8.5,2.9c-2.8,0.6-5.7,1.2-8.5,1.8l-5.5-8.3l-0.1-12.3 c35-1.6,57.9-9.2,57.9-9.2c-5.7,8.4-19.3,9.8-26.9,16.6C197.1,169.8,195,173.4,191.7,175.6z M299.3,232.5L299.3,232.5 c-3.9-3.4-9.9-3.2-13.6,0.5L151.1,368.5l5.2,21.8l21.7-21.7l26.2,27.6c3.4,3.6,9.1,3.8,12.8,0.4c3.7-3.5,3.9-9.3,0.4-13L190.6,356 L300,246.9C303.9,242.8,303.6,236.3,299.3,232.5z M260.2,100.3c-0.9-3.1-3.4-5-7.6-3.8c-10,2.9-19-1.4-26.6-20.9 c-40.4,21.9-84.5,13.8-84.5,13.8s-0.3,3.3-0.4,8.6c13.8,2.7,29-2.8,42.8-2.3c17.7,0.6,34.5,13.2,51.8,9.3c4-0.9,7.8-2.7,11.7-3.6 C251.6,100.3,255.9,100.1,260.2,100.3z" fill="#D08E6C"/></g><g id="change3_2"><path d="M152.8,359.8c3.9,1.3,7.5,3.5,10.3,6.6c6.6,7.2,17.8,20.5,14.5,25.5c-18.8,26.7-26.9,28.3-29,23 c0,0-7.8,5.2-13.6,3.6c-8-2.3-21.2-11.9-21.2-11.9l27.3-50.5L152.8,359.8z M266.4,308.8l25.9-23.1v-27.8c0,0-19-19-25.9-18.5 c-6.9,0.5-33.3,29.2-34.7,38.4C230.3,287,266.4,308.8,266.4,308.8z" fill="#F1BBA1"/></g><g id="change5_1"><path d="M322.5,208.4l-5.8,16l-63-22.9l3.9-18.6l45.7,16.1C310.1,201.4,316.5,204.5,322.5,208.4z M108.9,200.4 c-4.2,1.3-8.2,3-12,4.9c0.4,5.4,0.9,11.6,0.9,11.6l53.3-19.7v-10.1L108.9,200.4z M206.2,25.4c-0.6,0-14.3-15-14.3-15l-19.8,10.6 c0,0-2.4,27.3,15.3,29.6C203.5,52.7,206.2,25.4,206.2,25.4z" fill="#D3AB5B"/></g></svg>